<svg xmlns="http://www.w3.org/2000/svg" viewBox="0 0 1024 500" width="1024" height="500">
  <rect width="1024" height="500" fill="#0F172A"/>
  
  <path d="M600,500 L750,250 L900,500 M750,250 L750,0 M650,100 L850,400" 
        stroke="rgba(6, 182, 212, 0.15)" stroke-width="2" fill="none"/>
  <path d="M400,500 L650,150 L800,500" 
        stroke="rgba(16, 185, 129, 0.1)" stroke-width="3" fill="none"/>
  
  <circle cx="750" cy="250" r="4" fill="#06B6D4" opacity="0.6"/>
  <circle cx="650" cy="100" r="3" fill="#10B981" opacity="0.4"/>
  <circle cx="850" cy="400" r="5" fill="#06B6D4" opacity="0.5"/>

  <g transform="translate(100, 220)">
    <text font-family="'Segoe UI', Roboto, sans-serif" font-size="76" font-weight="bold" fill="#F8FAFC">
      agro<tspan fill="#10B981">Ai</tspan>
    </text>
    <text y="50" font-family="'Segoe UI', Roboto, sans-serif" font-size="22" font-weight="500" fill="#94A3B8" letter-spacing="1">
      Inteligencia Artificial Agrícola de Precisión
    </text>
    <text y="90" font-family="'Segoe UI', Roboto, sans-serif" font-size="16" font-weight="bold" fill="#06B6D4" letter-spacing="2">
      LARALBIR.GITHUB.IO/AGROAI
    </text>
  </g>

  <g transform="translate(680, 110) scale(2.6)">
    <path d="M54,24 C68,38 74,54 64,74 C54,84 54,84 54,84 C54,84 54,84 44,74 C34,54 40,38 54,24 Z" 
          fill="none" stroke="#10B981" stroke-width="3" stroke-linecap="round" stroke-linejoin="round"/>
    
    <line x1="54" y1="80" x2="54" y2="38" stroke="#06B6D4" stroke-width="2.5" stroke-linecap="round"/>
    
    <path d="M54,62 L44,52 L38,52" fill="none" stroke="#06B6D4" stroke-width="1.8" stroke-linecap="round"/>
    <circle cx="38" cy="52" r="2" fill="#06B6D4"/>
    
    <path d="M54,50 L64,40 L70,40" fill="none" stroke="#06B6D4" stroke-width="1.8" stroke-linecap="round"/>
    <circle cx="70" cy="40" r="2" fill="#06B6D4"/>
    
    <circle cx="54" cy="38" r="2.5" fill="#34D399"/>
  </g>
</svg>
